# xmcd
#
# Track frame offsets: 
#        150
#        10755
#        22540
#        32537
#        42967
#        54250
#        64640
#        77237
#        91197
#        101455
#        114195
#        125560
#        136425
#        146695
#        159255
#        170802
#        182432
#        192642
#        204177
#        213117
#        227292
#        236710
#        246497
#        256610
#
# Disc length: 3550 seconds
#
# Revision: 2
# Processed by: cddbd v1.5.2PL0 Copyright (c) Steve Scherf et al.
# Submitted via: ExactAudioCopy v0.99pb5
#
DISCID=2c0ddc18
DTITLE=Red Simpson - The Man Behind The Badge - Roll, Truck, Roll
DYEAR=1966
DGENRE=Country
TTITLE0=Johnny Law
TTITLE1=Bad Man Highway Patrol
TTITLE2=Under Arrest
TTITLE3=Sheriff Sam
TTITLE4=Sidewalk Patrol
TTITLE5=Workin' For The Highway Patrol
TTITLE6=Rules Of The Road
TTITLE7=(Mary, Oh Mary) I'm Turning In My Star
TTITLE8=The Highway Patrol
TTITLE9=25 Years On Patrol
TTITLE10=The City People
TTITLE11=County Sheriff
TTITLE12=Truck Drivin' Man
TTITLE13=Roll Truck Roll
TTITLE14=Nitro Express
TTITLE15=Give Me Forty Acres
TTITLE16=Happy Go Lucky Trucky Driver
TTITLE17=Highway Man
TTITLE18=Motivatin' Man
TTITLE19=Truck Driver's Blues
TTITLE20=Big Mack
TTITLE21=My Baby's Waitin'
TTITLE22=Six Days On The Road
TTITLE23=Runaway Truck
EXTD=
EXTT0=
EXTT1=
EXTT2=
EXTT3=
EXTT4=
EXTT5=
EXTT6=
EXTT7=
EXTT8=
EXTT9=
EXTT10=
EXTT11=
EXTT12=
EXTT13=
EXTT14=
EXTT15=
EXTT16=
EXTT17=
EXTT18=
EXTT19=
EXTT20=
EXTT21=
EXTT22=
EXTT23=
PLAYORDER=
